<svg width="20" height="20" viewBox="0 0 20 20" fill="none" xmlns="http://www.w3.org/2000/svg">
<path d="M9.99984 1.66667C5.3915 1.66667 1.6665 5.39167 1.6665 10C1.6665 14.6083 5.3915 18.3333 9.99984 18.3333C14.6082 18.3333 18.3332 14.6083 18.3332 10C18.3332 5.39167 14.6082 1.66667 9.99984 1.66667ZM14.1665 12.9917L12.9915 14.1667L9.99984 11.175L7.00817 14.1667L5.83317 12.9917L8.82484 10L5.83317 7.00834L7.00817 5.83334L9.99984 8.82501L12.9915 5.83334L14.1665 7.00834L11.1748 10L14.1665 12.9917Z" fill="#C2C9D1"/>
<path d="M9.99984 1.66667C5.3915 1.66667 1.6665 5.39167 1.6665 10C1.6665 14.6083 5.3915 18.3333 9.99984 18.3333C14.6082 18.3333 18.3332 14.6083 18.3332 10C18.3332 5.39167 14.6082 1.66667 9.99984 1.66667ZM14.1665 12.9917L12.9915 14.1667L9.99984 11.175L7.00817 14.1667L5.83317 12.9917L8.82484 10L5.83317 7.00834L7.00817 5.83334L9.99984 8.82501L12.9915 5.83334L14.1665 7.00834L11.1748 10L14.1665 12.9917Z" fill="black" fill-opacity="0.25"/>
</svg>
