<svg id="Layer_2" data-name="Layer 2" xmlns="http://www.w3.org/2000/svg" viewBox="0 0 70.34 60"><path d="M6.26,31.92V29H0L9.41,17.78H20L41.85,1.55V0h5.78V1.43L66.8,14.68h3.54v3.85H53.08V14.68h10L47.63,4V24.48H70.34v3.86H52.56V60H49.18l-2.24-2.24L44.7,60H41.31V43.29h-4l-4.73-4.74V29h-16v2.92H12.85V41.8H11.46A2.23,2.23,0,1,0,13.69,44h2.79a5,5,0,1,1-6.41-4.82V31.92Zm14.59-5.7,2.81-2.81-2.84-2.84H19l-2.84,2.84L19,26.22Zm5.62,0L24.16,23.9l-2.32,2.32ZM18,20.57h-4.7l2.35,2.35Zm-5.68,0H10.71L8.05,23.74l2.48,2.48h1.86l2.81-2.81ZM7.6,24.28,6,26.22H9.54Zm18.9-3.71H21.81l2.35,2.35ZM44.1,51.15l2.34-2.35L44.1,46.46Zm0-5.68,2.84,2.84,2.84-2.84v-1.8l-2.84-2.84L44.1,43.67ZM49.78,38l-2.35,2.35,2.35,2.34Zm0,8.47L47.43,48.8l2.35,2.35ZM44.1,42.68l2.34-2.34L44.1,38Zm2.84-2.84L49.78,37V35.2l-2.84-2.83L44.1,35.2V37ZM44.59,29l2.35,2.35L49.28,29Zm-2.74-2.81v-.07l-1.52-1.52-1.57,1.59Zm2.25,3.31v4.69l2.34-2.35Zm-6.33-3.31,2.07-2.08-3.57-3.57H36l-2.84,2.84,2.81,2.81ZM32.62,23.9,30.3,26.22h4.64ZM35,20.57h-4.7l2.35,2.35Zm14.81,9-2.35,2.34,2.35,2.35Zm0,24.41V52.13l-2.84-2.84L44.1,52.13v1.8l2.84,2.84ZM29.32,26.22l2.81-2.81-2.84-2.84h-1.8l-2.84,2.84,2.81,2.81ZM15.69,23.9l-2.31,2.32H18Zm7.85-6.12H37.43l4.42,4.42v-18ZM49.78,59.61V54.92l-2.35,2.35Zm-3.34-2.34L44.1,54.92v4.69ZM33.66,35.7h5v-4h-5Z"/><path d="M53.08,19.58H70.34v3.86H53.08Z"/></svg>