<svg id="Layer_2" data-name="Layer 2" xmlns="http://www.w3.org/2000/svg" viewBox="0 0 50.87 60.7"><path d="M24.16,5.09a1.25,1.25,0,0,1,.45,1.21h2V5.62a1.75,1.75,0,0,0-.93-1.34,1.09,1.09,0,1,1,1.39-1.37.84.84,0,0,1,0,.3,1.12,1.12,0,0,0,.36,1.2c.29.27,1,.49,1.25.24a.28.28,0,0,0,.1-.21c0-.29-.5-.51-.54-.75s.26-.41.31-.86A2.62,2.62,0,0,0,25.81,0a2.81,2.81,0,0,0-1.65,5.09Z"/><path d="M29.63,20.27h0c3.73-3.73.52-.51,3.6-3.6H17.61L20.89,20c.45.45.38.43.77.43C30.08,20.39,29.47,20.43,29.63,20.27Z"/><path d="M19.48,16.1H33.36V11.56H17.48V16.1Zm12.15-3.74a.66.66,0,0,1,0,.94.67.67,0,1,1,0-.94Zm.15,2.21h0a.68.68,0,0,1-.05.57h0a.67.67,0,1,1,.05-.57ZM20.36,12.83a.66.66,0,1,1-1.27-.28A.66.66,0,0,1,20.36,12.83ZM19,14.8a.67.67,0,1,1,1.08.52A.67.67,0,0,1,19,14.8Z"/><path d="M33.23,11l-3.61-3.6a.39.39,0,0,0-.27-.11H21.48a.39.39,0,0,0-.27.11L17.61,11Z"/><path d="M39,46.84l1.79.21L44.91,44l.31-1.86-.89-1.2-2.25,1.69-.61-.81-1.8,1.35.61.82L38,45.64l.75,1C39,46.51,39.05,46.82,39,46.84Z"/><path d="M46.32,46.24a1.73,1.73,0,0,1-1.46-.66l-.53-.71-2.5,1.89.82,1.09a2.22,2.22,0,0,0,1.31.83l.07,2.4a2,2,0,0,0-1.36-.72,2.33,2.33,0,0,0-1.05.18c-.65.28-.83.71-.65,1s.37.2.67.23a1.48,1.48,0,0,1,.75.21.37.37,0,0,1,.12.37,1.66,1.66,0,0,0,.33,1.07l.11-.07-.1.08a4.46,4.46,0,1,0,3.47-7.15Zm-1.8,7.39a.3.3,0,0,1,0-.49.3.3,0,0,1,.27,0,2.82,2.82,0,0,0,3.1-4.39,2.85,2.85,0,0,0-1.6-1,.22.22,0,0,1,0-.44h0a3.48,3.48,0,1,1-1.83,6.41ZM44,47.05a.46.46,0,0,1,.66.09.45.45,0,0,1,0,.59.46.46,0,0,1-.72,0A.48.48,0,0,1,44,47.05Zm.58,1.67a2.26,2.26,0,0,0,.55-.1,1.84,1.84,0,0,1,1.58,3.25,1.82,1.82,0,0,1-2.16,0l-.16-.13Z"/><path d="M28.44,49.68l1.55.93,5-1.13,1-1.57-.32-1.46L33,47.07l-.23-1-2.2.49.23,1L28,48.18l.27,1.21C28.52,49.35,28.48,49.67,28.44,49.68Z"/><path d="M35.34,52.14a1.76,1.76,0,0,1-1.06-1.21l-.2-.86-3,.69.3,1.33a2.22,2.22,0,0,0,.85,1.3l-.92,2.21a2,2,0,0,0-1-1.21,2.25,2.25,0,0,0-1-.27c-.71,0-1.05.3-1,.6s.26.34.52.49.52.31.6.5a.41.41,0,0,1,0,.39,1.52,1.52,0,0,0-.14,1.11l.13,0-.13,0a4.46,4.46,0,1,0,6.11-5.08Zm-4.69,6a.31.31,0,0,1,.19-.46.32.32,0,0,1,.27.07A2.81,2.81,0,0,0,35.73,55a2.74,2.74,0,0,0-1-1.6.3.3,0,0,1-.09-.13.23.23,0,0,1,.31-.25h0a3.48,3.48,0,1,1-4.31,5.09Zm2.25-6.21a.47.47,0,0,1,.31.89.48.48,0,0,1-.66-.31A.47.47,0,0,1,32.9,51.92Zm-.16,1.77a2.56,2.56,0,0,0,.54.13,1.82,1.82,0,0,1,1.5,1.41,1.84,1.84,0,0,1-3.38,1.34.76.76,0,0,1-.09-.18Z"/><path d="M38.06,38.79l.86,1.45a.34.34,0,0,1-.12.44.32.32,0,0,1-.44-.11l-.85-1.45a2.74,2.74,0,0,1-1.89.09,17.43,17.43,0,0,0,1.26,2.22,2,2,0,1,0,3.51-2.06,19.92,19.92,0,0,0-1.32-2.19A2.65,2.65,0,0,1,38.06,38.79Z"/><path d="M35.87,35.05l.85,1.45a.32.32,0,0,1-.12.44.33.33,0,0,1-.44-.12l-.85-1.45a2.63,2.63,0,0,1-1.89.09,1.5,1.5,0,0,0,.16.34A16.27,16.27,0,0,0,34.91,38a2,2,0,0,0,3.44-2,17.72,17.72,0,0,0-1.26-2.23,2.32,2.32,0,0,0-.22-.3A2.74,2.74,0,0,1,35.87,35.05Z"/><path d="M33.67,31.31l.85,1.45a.32.32,0,1,1-.55.32l-.85-1.45a2.66,2.66,0,0,1-1.9.09A19.66,19.66,0,0,0,32.49,34a1.94,1.94,0,0,0,.81.77A2,2,0,0,0,36,31.89a16.91,16.91,0,0,0-1.33-2.19A2.69,2.69,0,0,1,33.67,31.31Z"/><path d="M30.91,41.85l.31,1.66a.32.32,0,0,1-.26.37.32.32,0,0,1-.37-.25L30.27,42a2.65,2.65,0,0,1-1.81-.55,18.29,18.29,0,0,0,.44,2.52,2,2,0,0,0,4-.75,18.42,18.42,0,0,0-.51-2.51A2.71,2.71,0,0,1,30.91,41.85Z"/><path d="M30.1,37.59l.31,1.65a.33.33,0,0,1-.25.38.34.34,0,0,1-.38-.26l-.31-1.65a2.68,2.68,0,0,1-1.81-.56,2.43,2.43,0,0,0,0,.38A19,19,0,0,0,28.2,40a2,2,0,0,0,2,1.29,2,2,0,0,0,1.94-2,17.86,17.86,0,0,0-.44-2.53,2.42,2.42,0,0,0-.1-.36A2.67,2.67,0,0,1,30.1,37.59Z"/><path d="M29.3,33.33,29.61,35a.32.32,0,0,1-.63.12l-.31-1.66a2.62,2.62,0,0,1-1.81-.55,17.67,17.67,0,0,0,.44,2.52,1.94,1.94,0,0,0,.5,1,2,2,0,0,0,3.39-.64,2,2,0,0,0,.11-1.11,18.42,18.42,0,0,0-.51-2.51A2.71,2.71,0,0,1,29.3,33.33Z"/><path d="M33.47,27.75a14.41,14.41,0,0,0-1.33-2.19,2.65,2.65,0,0,1-1,1.61c.3.5.56.95.85,1.45a.32.32,0,1,1-.55.32l-.85-1.45c-.23.1-2,1-2.27,1.08.11.58.21,1.09.31,1.66a.31.31,0,0,1-.25.37.32.32,0,0,1-.38-.26c-.11-.57-.2-1.08-.31-1.65a2.62,2.62,0,0,1-1.81-.55,18,18,0,0,0,.44,2.52,2,2,0,0,0,.5,1A2,2,0,0,0,30.21,31a1.77,1.77,0,0,0,.12-.75,2.69,2.69,0,0,0,.44.31,2,2,0,0,0,2.7-2.83Z"/><path d="M11.84,46.84l-1.79.21L6,44,5.64,42.1l.9-1.2,2.25,1.69.61-.81,1.8,1.35-.61.82,2.24,1.69-.75,1C11.91,46.51,11.82,46.82,11.84,46.84Z"/><path d="M4.55,46.24A1.73,1.73,0,0,0,6,45.58l.53-.71L9,46.76l-.82,1.09a2.22,2.22,0,0,1-1.31.83l-.07,2.4a1.94,1.94,0,0,1,1.36-.72,2.33,2.33,0,0,1,1.05.18c.65.28.83.71.65,1s-.37.2-.67.23a1.48,1.48,0,0,0-.75.21.37.37,0,0,0-.12.37A1.66,1.66,0,0,1,8,53.38l-.11-.07.1.08a4.46,4.46,0,1,1-3.47-7.15Zm1.8,7.39a.3.3,0,0,0,0-.49.3.3,0,0,0-.27,0,2.82,2.82,0,1,1-1.5-5.43.22.22,0,0,0,0-.44h0a3.48,3.48,0,1,0,1.83,6.41Zm.51-6.58a.47.47,0,0,0-.65.68.47.47,0,1,0,.65-.68Zm-.58,1.67a2.26,2.26,0,0,1-.55-.1,1.84,1.84,0,0,0-1.58,3.25,1.82,1.82,0,0,0,2.16,0l.16-.13Z"/><path d="M22.43,49.68l-1.55.93-5-1.13-1.05-1.57.32-1.46,2.74.62.23-1,2.2.49-.23,1,2.74.62-.27,1.21C22.35,49.35,22.39,49.67,22.43,49.68Z"/><path d="M15.53,52.14a1.76,1.76,0,0,0,1.06-1.21l.2-.86,3.05.69-.3,1.33a2.22,2.22,0,0,1-.85,1.3l.92,2.21a2,2,0,0,1,.95-1.21,2.25,2.25,0,0,1,1-.27c.71,0,1.05.3,1,.6s-.26.34-.52.49-.52.31-.6.5a.41.41,0,0,0,0,.39,1.52,1.52,0,0,1,.14,1.11l-.13,0,.13,0a4.46,4.46,0,1,1-6.11-5.08Zm4.69,6a.31.31,0,0,0-.19-.46.32.32,0,0,0-.27.07A2.81,2.81,0,0,1,15.14,55a2.74,2.74,0,0,1,1-1.6.3.3,0,0,0,.09-.13.23.23,0,0,0-.31-.25h0a3.48,3.48,0,1,0,4.31,5.09ZM18,51.92a.47.47,0,0,0-.31.89.48.48,0,0,0,.66-.31A.47.47,0,0,0,18,51.92Zm.16,1.77a2.56,2.56,0,0,1-.54.13,1.82,1.82,0,0,0-1.5,1.41,1.84,1.84,0,0,0,3.38,1.34.76.76,0,0,0,.09-.18Z"/><path d="M12.81,38.79,12,40.24a.34.34,0,0,0,.12.44.32.32,0,0,0,.44-.11l.85-1.45a2.74,2.74,0,0,0,1.89.09A17.43,17.43,0,0,1,14,41.43a2,2,0,1,1-3.51-2.06,19.92,19.92,0,0,1,1.32-2.19A2.65,2.65,0,0,0,12.81,38.79Z"/><path d="M15,35.05l-.85,1.45a.32.32,0,0,0,.12.44.33.33,0,0,0,.44-.12l.85-1.45a2.63,2.63,0,0,0,1.89.09,1.5,1.5,0,0,1-.16.34A16.27,16.27,0,0,1,16,38a2,2,0,0,1-3.44-2,17.72,17.72,0,0,1,1.26-2.23,2.32,2.32,0,0,1,.22-.3A2.69,2.69,0,0,0,15,35.05Z"/><path d="M17.2,31.31l-.85,1.45a.32.32,0,1,0,.55.32l.85-1.45a2.66,2.66,0,0,0,1.9.09A19.66,19.66,0,0,1,18.38,34a1.94,1.94,0,0,1-.81.77,2,2,0,0,1-2.7-2.83A16.91,16.91,0,0,1,16.2,29.7,2.69,2.69,0,0,0,17.2,31.31Z"/><path d="M20,41.85l-.31,1.66a.32.32,0,0,0,.26.37.32.32,0,0,0,.37-.25L20.6,42a2.65,2.65,0,0,0,1.81-.55A18.29,18.29,0,0,1,22,43.94a2,2,0,0,1-4-.75,18.42,18.42,0,0,1,.51-2.51A2.71,2.71,0,0,0,20,41.85Z"/><path d="M20.77,37.59l-.31,1.65a.33.33,0,0,0,.25.38.34.34,0,0,0,.38-.26l.31-1.65a2.68,2.68,0,0,0,1.81-.56,2.43,2.43,0,0,1,0,.38A19,19,0,0,1,22.67,40a2,2,0,0,1-2,1.29,2,2,0,0,1-1.94-2,17.86,17.86,0,0,1,.44-2.53,2.42,2.42,0,0,1,.1-.36A2.67,2.67,0,0,0,20.77,37.59Z"/><path d="M21.57,33.33,21.26,35a.32.32,0,0,0,.63.12l.31-1.66A2.62,2.62,0,0,0,24,32.89a17.67,17.67,0,0,1-.44,2.52,1.94,1.94,0,0,1-.5,1,2,2,0,0,1-3.39-.64,2,2,0,0,1-.11-1.11,18.42,18.42,0,0,1,.51-2.51A2.71,2.71,0,0,0,21.57,33.33Z"/><path d="M23.18,28.69c-.11.57-.2,1.08-.31,1.65a.32.32,0,0,1-.38.26.31.31,0,0,1-.25-.37c.1-.57.2-1.08.31-1.66-.26-.08-2-1-2.27-1.08l-.85,1.45a.32.32,0,1,1-.55-.32c.29-.5.55-.95.85-1.45a2.65,2.65,0,0,1-1-1.61,14.41,14.41,0,0,0-1.33,2.19,2,2,0,0,0,2.7,2.83,2.69,2.69,0,0,0,.44-.31,1.77,1.77,0,0,0,.12.75,2,2,0,0,0,3.39.64,2,2,0,0,0,.5-1A18,18,0,0,0,25,28.14,2.62,2.62,0,0,1,23.18,28.69Z"/><path d="M30.94,23.34c-1-1.72-1.14-2-1.25-2.11a4.48,4.48,0,0,1-8.51,0c-.11.15-.25.39-1.25,2.11a2,2,0,0,0-.28,1.08,2,2,0,0,0,2.1,2,2,2,0,0,0,3.19.26,2,2,0,0,0,.49-1,2.09,2.09,0,0,0,.5,1,2,2,0,0,0,3.19-.26,2,2,0,0,0,2.1-2A2,2,0,0,0,30.94,23.34Z"/></svg>