<svg id="Layer_2" data-name="Layer 2" xmlns="http://www.w3.org/2000/svg" viewBox="0 0 44.71 60"><path d="M32.74,25.87c-.49.72-.93,1.45-1.47,2.12a1.16,1.16,0,0,1-.89.4,16.31,16.31,0,0,1-2.58-.58c-.27-.08-.45-.43-.67-.66a3.25,3.25,0,0,1,.86-.56,1.89,1.89,0,0,1,.9.1c1.88.42,1.39.42,2.45-1.1S32.4,24,34.09,25c1.15.68,2.32,1.35,3.5,2,.5.28.78.62.38,1.16-1.21,1.65-1.13,3,.41,4.54,1.35,1.35,1.15,1.54,3,1a15.09,15.09,0,0,1,1.6-.27c.59,2.19,1.17,4.32,1.77,6.51l-3.29,1.25c-.2,1.31-.41,2.48-.53,3.66a1.24,1.24,0,0,0,.39.94,12.84,12.84,0,0,0,1.86,1.33c.52.3.48.64.24,1.06-.89,1.53-1.79,3.06-2.67,4.59-.28.48-.59.71-1.09.29L39.47,53c-1.47-.87-2.71-1.19-4.21.31-1,1-1.79,1.54-1.28,3.15s.27,1.62-1.38,2c-1.43.35-2.84.74-4.26,1.14-.55.16-.79-.05-.9-.57-.05-.23-.23-.45-.24-.68-.15-1.74-1.26-2.16-2.78-2.13A3.07,3.07,0,0,1,23.07,56a1.1,1.1,0,0,1-.53-.83c0-.56.41-.52.86-.45a21.42,21.42,0,0,0,3.09.31,1.07,1.07,0,0,1,1.23.89c.15.56.38,1.1.58,1.65a.69.69,0,0,0,1,.5c.93-.3,1.9-.48,2.82-.81a1,1,0,0,0,.52-.76,11.37,11.37,0,0,0-.3-2,1,1,0,0,1,.53-1.11,31.63,31.63,0,0,0,3.26-2.5,1.09,1.09,0,0,1,1.45-.23,8.86,8.86,0,0,0,1.65.78,1,1,0,0,0,.89-.25,23.87,23.87,0,0,0,1.59-2.77,1,1,0,0,0-.28-.87c-.55-.47-1.21-.82-1.78-1.28a1,1,0,0,1-.27-.75c.17-1.46.41-2.9.57-4.36.06-.56.09-1,.8-1.11a7,7,0,0,0,1.21-.44c1.14-.37,1.22-.52.93-1.63-.2-.71-.38-1.42-.56-2.13s-.45-1-1.17-.75c-1.67.6-2.9.31-3.69-1.49a14.82,14.82,0,0,0-1.76-2.19,1.89,1.89,0,0,1-.2-1.09c0-.25.22-.49.32-.74.75-1.72.75-1.72-.85-2.64-.64-.36-1.28-.7-1.93-1.05C33,25.87,32.92,25.88,32.74,25.87Z"/><path d="M10.86,1.56a2.29,2.29,0,0,1,2-1.5,12.94,12.94,0,0,1,2.64,0,1.74,1.74,0,0,1,1.7,1.31.71.71,0,0,0,.24.35,5.85,5.85,0,0,1,1.44.93,9.36,9.36,0,0,1,1.93,5.68c0,.31-.38.64-.59.95s-.55.58-.61.9a6,6,0,0,1-3.72,4.86A5.23,5.23,0,0,1,9.2,12.14C9,11.45,8.86,10.72,8.67,10c-.05-.22-.17-.55-.32-.59-.94-.27-1-1-.82-1.7.41-1.76.69-3.61,1.93-5A9.55,9.55,0,0,1,10.86,1.56Zm4.41,4.21c0-.28,0-.59.05-.88.09-.52.19-1,.31-1.54.46-1.91,0-2.41-2-2.11-.36.06-.7.18-1.17.31l.77,4.25c-.75.27-1.3.5-1.39-.6a15.76,15.76,0,0,0-.58-2.45c-.36.34-.72.53-.85.82-.58,1.27-1.11,2.55-1.6,3.85-.05.13.31.6.48.6,3.25,0,6.5,0,9.75,0,.55,0,.67-.29.5-.79s-.28-1.06-.47-1.57a5.2,5.2,0,0,0-2-2.93c-.19.89-.34,1.65-.5,2.41C16.38,6.16,16.32,6.19,15.27,5.77ZM14,14.17a4.53,4.53,0,0,0,4.3-4.32c0-.16-.27-.51-.42-.51-2.48,0-5,0-7.45,0a.73.73,0,0,0-.48.51A4.35,4.35,0,0,0,14,14.17Z"/><path d="M10.19,26.13c-.45-.47-.87-.71-.93-1-.14-.68.45-.65.9-.65s1-.06.92.63C11,25.4,10.62,25.65,10.19,26.13Z"/><path d="M18,25.93c-.68-.16-1.14-.18-1.09-.87s.59-.57,1-.59,1,0,.82.65C18.68,25.43,18.27,25.66,18,25.93Z"/><path d="M7.45,33.43v-.92l.24-8.1C7.73,23.24,8,23,9.13,23H18.9c1,0,1.32.29,1.35,1.29.38,10.19.28,20.38.05,30.58,0,.21,0,.42-.05.75a4.44,4.44,0,0,0-1.23.11c-.3.12-.5.48-.74.73.24.2.46.53.74.58a11.29,11.29,0,0,0,1.65,0,.88.88,0,0,1,.95.91c0,.22-.28.64-.44.65-1.57,0-3.14.07-4.7,0-.24,0-.63-.55-.65-.87-.17-2.07-.29-4.14-.42-6.21h0l0-.41c0-.27,0-.55-.05-.83a.43.43,0,0,1,0-.11L14.76,43h0c.07-.75.14-1.5.17-2.24,0-1.06-.6-1.47-1.59-1.08a.67.67,0,0,0-.34.46c-.12,1.05-.28,2.1-.31,3.15h0a8.74,8.74,0,0,0,.19,2.33l-.06.72-.35,5.08-.09,1.26c-.15,1.38-.31,2.76-.47,4.14V57c-.11,1.56-.32,1.76-1.87,1.76-1.13,0-2.27,0-3.4,0-.59,0-1-.08-.77-.83a3.74,3.74,0,0,0,0-1c.88.07,1.72.15,2.56.2.42,0,.79,0,.78-.62s-.3-.81-.81-.73c-.88.13-1.19-.2-1.23-.82v-.5a11.31,11.31,0,0,0,0-1.93l0-4.37h0c0-1.47.06-2.95.06-4.43ZM6,44c0,1.89,0,3.79,0,5.69L5.73,54.9,4.9,57.49h0a4.48,4.48,0,0,0-.45,1.66c0,.69.66.85,1.3.85h5.07c1.7,0,2-.28,2.21-2s.28-3.48.39-5.22h0l0-.19a2.46,2.46,0,0,1,0-.28h0l.41-6.3L14,46l.14,1.85.14,1.86v0l.1,1.3v.13h0l.33,7.65A1.11,1.11,0,0,0,15.92,60C18,60,20,60,22,60c.35,0,.92-.35,1-.62a2.91,2.91,0,0,0-.83-3A1.48,1.48,0,0,1,21.58,55q.15-6.21.29-12.43a4.48,4.48,0,0,1,.11-.61,4,4,0,0,0,1.3.23,16.09,16.09,0,0,0,2.46-.71c.26-.09.61-.4.62-.64.19-2.42.43-4.85.41-7.28a50.5,50.5,0,0,0-.54-7.06c-.36-2.48-1.05-4.91-1.48-7.39a2.63,2.63,0,0,0-1.95-2.26c-1-.32-2.05-.62-3.08-.93a4.07,4.07,0,0,0-2.84.24,7.27,7.27,0,0,1-5.82,0,3.35,3.35,0,0,0-2.48-.23c-.85.27-1.68.56-2.54.8-1.34.38-1.54,1.26-2,2.51-1,2.53-1.33,4.49-2.12,7.08a64.13,64.13,0,0,0-1.4,6.61c-.62,3.47-.59,6.24-.25,6.57a5,5,0,0,0,.91.44,14.05,14.05,0,0,0,4.05.22c.74-.23.61-.07.81,0C6,40.13,6,44,6,44Zm-1.63-5c-3,0-3.13-.13-3-2.39,0-.61.09-1.26,1.12-1.21,2.17.09,3,.46,3,1.52C5.4,37.73,5.66,38.93,4.36,38.93Zm20.84.72c0,.63-.95,1.14-1.93,1.13-.83,0-.58-.64-.61-1.06-.08-1.52.45-1.9,2.55-1.76C25.21,38.57,25.23,39.11,25.2,39.65Zm-.57-3.09c-2.2.72-2.31.68-2.45-1.6-.23-3.7-.43-7.41-.64-11.11a2,2,0,0,0-2.09-2.06c-3.62,0-7.24,0-10.86,0a1.91,1.91,0,0,0-2.1,1.46c-.68,3.29-.34,6.18-.68,9.69-.07.79-.47,1.62-1.32,1.4-.18-.05-.79,0-1-.05C1.93,34,1.6,33.71,1.91,32.19s.59-3.46,1-4.83c.56-1.87.59-2.66,1.26-4.49.28-.77.53-2,.8-2.75.42-1.17.26-2,1.63-2.25.71-.14,1.39-.4,2.27-.66,0,1.11,0,2.05,0,3,0,.53,0,1,.73,1s.65-.51.65-1v-3a9.19,9.19,0,0,0,7.51,0c0,1.2,0,2.18,0,3.15,0,.5.11.83.7.83s.71-.31.7-.83c0-1,0-2.06,0-3.23a28.83,28.83,0,0,1,3.5,1,2.14,2.14,0,0,1,.9,1.37c.54,2.48,1,5,1.46,7.48a15,15,0,0,1,.24,2c.08,2.15.09,4.3.19,6.44A1,1,0,0,1,24.63,36.56Z"/><path d="M32.88,38.2A7.18,7.18,0,0,0,31.08,36h0l-.33-.26,0,0h0a10.52,10.52,0,0,0-1.73-1l-.41-.19,0,0h0a2,2,0,0,0-.32-.1c-.23,0-.66.1-.69.22-.06.33-.08.85.11,1a1,1,0,0,0,.47.14h.05a2.87,2.87,0,0,1,1.12.51l.14.11.47.31a.31.31,0,0,0,.09.07,5.87,5.87,0,0,1,1.57,7.68,6,6,0,0,1-7.76,2.51c-.62-.26-1.26-.69-1.55.42a2.51,2.51,0,0,0,.23.33,1,1,0,0,0,.3.21,7.12,7.12,0,0,0,6.12.43A7.27,7.27,0,0,0,32.88,38.2Z"/></svg>