<svg id="Layer_2" data-name="Layer 2" xmlns="http://www.w3.org/2000/svg" viewBox="0 0 67.2 62.3"><circle cx="47.61" cy="15.36" r="2.46"/><rect x="34.29" y="3.83" width="26.64" height="1.18"/><rect x="34.29" width="26.64" height="2.36"/><rect x="34.29" y="6.29" width="26.64" height="1.18"/><circle cx="32.73" cy="52.12" r="3.4"/><path d="M66.35,44.54,53.54,31.74a2.89,2.89,0,0,0-4.09,0l-6.94,6.93c1.82-5.59,5.33-15.57,5.8-17a12.57,12.57,0,0,1,11.52,9.62h1.09V8.75H34.29v6.17a2.11,2.11,0,0,1-2.38.28c-1.43-1-.64-3.75-.29-4.46-1.42-.39-2.56-.84-3.17-.91-.14,1.17-1.16,3.68-2.81,3.68s-2.19-2.95-2.12-4.19c-1,0-3.29.26-3.29.26s.66,3.86-1.53,4.4-3.31-3.33-3.31-3.33l-2.89,1.4s1.84,3.68,0,4.65-4.14-1.86-4.14-1.86a16.88,16.88,0,0,0-2.31,2.28c1.49,1.4,2.52,3.33,1.73,4.29s-2.94.81-4.66-.28c-.54,1.12-1.49,2.93-1.49,2.93s3.82,1.42,3.12,3.59C4.1,29.42.35,28.79.35,28.79A14.43,14.43,0,0,0,0,32.1c2,0,3.91.74,4,2.25S2,36.66.21,37c.44,1.91.86,3.15.86,3.15s3.45-1.26,4.54.69-2.52,3.85-2.52,3.85a20.35,20.35,0,0,0,1.84,2.65c1-.95,3.33-2,4.55-.81S9,50,8.36,50.89a25.89,25.89,0,0,0,2.61,2s2.07-3.35,4-2.33.49,4.52.49,4.52a11.11,11.11,0,0,0,3.08.91c.18-1.54,1.43-3.87,3-3.61a1.47,1.47,0,0,1,.4.14l-.56,1.42,2,.81a7.88,7.88,0,0,1,.18,1.75,17.53,17.53,0,0,0,3.42-.26L39.6,61.46l2.88-7,7,7a2.89,2.89,0,0,0,4.09,0L66.35,48.64A2.9,2.9,0,0,0,66.35,44.54Zm-25.75-4-4,4A2.89,2.89,0,0,0,35.86,46h0a6.75,6.75,0,0,0-5.16-.47c2.61-1.74,4-5.53,4-5.53L43,22.57a12.34,12.34,0,0,1,4-.86C45.1,27.13,41.21,38.06,40.6,40.58Zm.57-29.15h13v7.89h-13ZM38.49,25.62a17.26,17.26,0,0,1,.71,1.72l-.63,1.31a15.19,15.19,0,0,0-.8-2.2C38,26.16,38.24,25.89,38.49,25.62Zm-15.43,24A16.75,16.75,0,1,1,34.29,20.19v1.32A15.77,15.77,0,1,0,23.42,48.7h0Zm2-4.82-.26.59a10.85,10.85,0,0,1-1.4.09,12.61,12.61,0,1,1,10.87-19v2.28A11.6,11.6,0,1,0,35,32.92a11.9,11.9,0,0,0-.12-1.59h.46c.09-.39.21-.77.33-1.15A12.37,12.37,0,0,1,36,32.92a11.38,11.38,0,0,1-.08,1.31c-1.52,3.23-2.92,6.23-3.45,7.38a12.49,12.49,0,0,1-6.3,3.58A4.09,4.09,0,0,1,25.08,44.84Zm7.32-12a9,9,0,1,1-9-9A9,9,0,0,1,32.4,32.89Zm6.18,19.23a5.85,5.85,0,1,1-2.73-5,2.87,2.87,0,0,0,.79,1.48l2,2-.33-.32A5.74,5.74,0,0,1,38.58,52.12Zm27.06-4.19L52.84,60.74a1.9,1.9,0,0,1-2.69,0L37.34,47.93a1.9,1.9,0,0,1,0-2.68L50.15,32.44a1.92,1.92,0,0,1,2.69,0l12.8,12.81A1.9,1.9,0,0,1,65.64,47.93Z"/><path d="M54.66,42l-2.89-2.85,1.45-1.37a7,7,0,0,0,3.76.53c1.88,1.86,4.46,4.51,4.46,4.51l-2.95,3-2.36-2.24-3.22,3.54s1.12,1.5,2.31,1.62,2.58-.05,3.42,1.33a4.2,4.2,0,0,1-.12,4.17c-.53-1.28-1.4-3-1.4-3a2.45,2.45,0,0,0-2.72,1.25c.82,1.86,1.35,3.09,1.35,3.09a4.5,4.5,0,0,1-3.07-2.1c-.65-1.2,0-2.48-.5-3.3a3.51,3.51,0,0,0-1.09-1.13s-3.27,3.66-4.75,5.13A1.54,1.54,0,0,1,44,53.8a1.72,1.72,0,0,1,.41-2.43c.82-.77,4.78-4.32,4.78-4.32a5.64,5.64,0,0,0-2.25-1.59c-1-.19-2.58,0-3.54-1.3s-.31-4,.26-4.31c.46,1.06,1.33,3,1.33,3a2.24,2.24,0,0,0,2.7-1.27c-.84-1.72-1.42-3.06-1.42-3.06a4.82,4.82,0,0,1,3.16,2.36,8.75,8.75,0,0,1,.24,2.55,6,6,0,0,0,1.44,1.74Z"/></svg>