<svg xmlns="http://www.w3.org/2000/svg" id="Layer_2" data-name="Layer 2" viewBox="0 0 99.6 86"><defs><style>.cls-1{fill:#fad200;}</style></defs><path class="cls-1" d="M87.6,86H12A12,12,0,0,1,0,74V29A12,12,0,0,1,12,17H24a3,3,0,0,0,2.45-1.28L35.38,3a7,7,0,0,1,5.73-3H58.49a7,7,0,0,1,5.73,3l8.92,12.74A3,3,0,0,0,75.6,17h12a12,12,0,0,1,12,12V74A12,12,0,0,1,87.6,86ZM12,21a8,8,0,0,0-8,8V74a8,8,0,0,0,8,8H87.6a8,8,0,0,0,8-8V29a8,8,0,0,0-8-8h-12a7,7,0,0,1-5.73-3L60.94,5.28A3,3,0,0,0,58.49,4H41.11a3,3,0,0,0-2.46,1.28L29.73,18A7,7,0,0,1,24,21Z"/><path class="cls-1" d="M49.8,71a22,22,0,1,1,22-22A22,22,0,0,1,49.8,71Zm0-40a18,18,0,1,0,18,18A18,18,0,0,0,49.8,31Z"/><rect class="cls-1" x="47.6" y="38" width="4" height="22"/><rect class="cls-1" x="38.6" y="47" width="22" height="4"/></svg>